HIERARCHY
ROOT Hip
{
	OFFSET 0.000000 0.000000 0.000000 
	CHANNELS 6 Xposition Yposition Zposition Xrotation Yrotation Zrotation
	JOINT LowerSpine
	{
		OFFSET 0.000000 8.345300 -5.129200 
		CHANNELS 3 Xrotation Yrotation Zrotation
		JOINT MiddleSpine
		{
			OFFSET 10.856900 0.000000 0.000000 
			CHANNELS 3 Xrotation Yrotation Zrotation
			JOINT Chest
			{
				OFFSET 15.298400 0.000000 0.000000 
				CHANNELS 3 Xrotation Yrotation Zrotation
				JOINT Neck
				{
					OFFSET 25.661800 -0.598600 0.000000 
					CHANNELS 3 Xrotation Yrotation Zrotation
					JOINT Head
					{
						OFFSET 8.882900 0.000000 0.000000 
						CHANNELS 3 Xrotation Yrotation Zrotation
						End Site
						{
							OFFSET 19.739901 0.000000 0.000000 
						}
					}
				}
				JOINT RClavicle
				{
					OFFSET 23.687799 0.000000 3.158400 
					CHANNELS 3 Xrotation Yrotation Zrotation
					JOINT RShoulder
					{
						OFFSET -15.594500 -3.948000 0.987000 
						CHANNELS 3 Xrotation Yrotation Zrotation
						JOINT RForearm
						{
							OFFSET -31.337000 0.000000 0.197400 
							CHANNELS 3 Xrotation Yrotation Zrotation
							JOINT RHand
							{
								OFFSET -26.402100 0.000000 0.000000 
								CHANNELS 3 Xrotation Yrotation Zrotation
								End Site
								{
									OFFSET -15.791900 -0.987000 0.000000 
								}
							}
						}
					}
				}
				JOINT LClavicle
				{
					OFFSET 23.687799 0.000000 -3.158400 
					CHANNELS 3 Xrotation Yrotation Zrotation
					JOINT LShoulder
					{
						OFFSET -15.594500 -3.948000 -0.987000 
						CHANNELS 3 Xrotation Yrotation Zrotation
						JOINT LForearm
						{
							OFFSET -31.337000 0.000000 -0.197400 
							CHANNELS 3 Xrotation Yrotation Zrotation
							JOINT LHand
							{
								OFFSET -26.402100 0.000000 0.000000 
								CHANNELS 3 Xrotation Yrotation Zrotation
								End Site
								{
									OFFSET -15.791900 -0.987000 0.000000 
								}
							}
						}
					}
				}
			}
		}
	}
	JOINT RThigh
	{
		OFFSET -8.882900 0.448100 0.000000 
		CHANNELS 3 Xrotation Yrotation Zrotation
		JOINT RShin
		{
			OFFSET 43.131599 0.000000 -0.493500 
			CHANNELS 3 Xrotation Yrotation Zrotation
			JOINT RFoot
			{
				OFFSET 0.000000 -44.725601 -0.404700 
				CHANNELS 3 Xrotation Yrotation Zrotation
				JOINT RToe
				{
					OFFSET 0.000000 -3.933200 12.195300 
					CHANNELS 3 Xrotation Yrotation Zrotation
					End Site
					{
						OFFSET 6.772500 0.000000 0.000000 
					}
				}
			}
		}
	}
	JOINT LThigh
	{
		OFFSET 8.882900 0.448100 0.000000 
		CHANNELS 3 Xrotation Yrotation Zrotation
		JOINT LShin
		{
			OFFSET 43.131599 0.000000 0.493500 
			CHANNELS 3 Xrotation Yrotation Zrotation
			JOINT LFoot
			{
				OFFSET 0.000000 -44.725601 0.404700 
				CHANNELS 3 Xrotation Yrotation Zrotation
				JOINT LToe
				{
					OFFSET 0.000000 -3.933200 -12.195300 
					CHANNELS 3 Xrotation Yrotation Zrotation
					End Site
					{
						OFFSET 6.772500 0.000000 0.000000 
					}
				}
			}
		}
	}
}
MOTION
Frames: 10
Frame Time: 0.016949
6.915972 90.013107 -16.159548 22.606812 8.905944 1.909217 -89.999992 -90.000000 0.000000 0.034379 -0.031790 -0.343736 0.115269 -0.103575 -1.134345 0.000000 0.000000 0.000000 0.000000 0.000000 0.000000 90.041389 0.421027 -95.684860 35.388172 -7.302245 83.546806 165.387085 64.176956 -164.327484 0.000000 0.000000 0.000000 -90.000046 -0.000898 -90.011604 -23.240892 -10.986001 57.672352 -161.623657 -71.122902 -160.952316 0.000000 0.000000 0.000000 4.807929 78.105194 -145.431259 89.488991 45.521717 90.172722 -3.430900 1.460203 0.382017 168.855637 90.000000 0.000000 99.401817 81.497887 135.358170 -89.733986 -27.641878 90.041115 12.790415 -1.259483 0.869284 181.262161 -90.000000 0.000000 
6.844815 90.088737 -16.262043 22.696720 8.986474 1.882493 -89.999992 -90.000000 0.000000 0.015501 -0.014713 -0.347993 0.019358 -0.056417 -1.146342 0.000000 0.000000 0.000000 0.000000 0.000000 0.000000 90.045135 0.447820 -96.048248 34.857529 -4.910469 84.322426 169.191559 60.803047 -167.945282 0.000000 0.000000 0.000000 -89.999809 0.003912 -89.946953 -22.479572 -13.452845 57.689342 -165.397430 -68.142860 -164.560181 0.000000 0.000000 0.000000 4.455097 78.118301 -144.945068 89.491615 45.448223 90.170456 -3.575523 1.499431 0.429013 168.667831 90.000000 0.000000 99.680923 81.520248 134.979538 -89.735580 -27.539803 90.040047 12.605299 -1.460105 0.990715 181.359100 -90.000000 0.000000 
6.697360 90.279861 -16.344038 22.782515 9.016629 1.853851 -89.999992 -90.000000 0.000000 -0.009261 0.003979 -0.338723 -0.043937 -0.012025 -1.108754 0.000000 0.000000 0.000000 0.000000 0.000000 0.000000 90.047272 0.462571 -96.248444 34.151455 -1.834694 84.823463 171.406143 57.937389 -170.002167 0.000000 0.000000 0.000000 -89.999725 0.005694 -89.923035 -21.223373 -16.116825 57.594166 -167.550797 -65.775864 -166.582840 0.000000 0.000000 0.000000 4.386057 78.360443 -144.485184 89.503334 44.923855 90.161629 -3.736115 1.016733 0.306132 168.744812 90.000000 0.000000 100.598122 81.601875 134.422318 -89.747200 -26.596184 90.034424 12.409944 -1.830481 1.207079 181.023361 -90.000000 0.000000 
6.542703 90.555977 -16.456333 22.979162 9.005075 1.810063 -89.999992 -90.000000 0.000000 -0.037007 0.015361 -0.310195 -0.113281 0.030260 -1.036505 0.000000 0.000000 0.000000 0.000000 0.000000 0.000000 90.046944 0.460385 -96.218750 32.851990 1.204947 85.008667 172.871216 55.396286 -171.327057 0.000000 0.000000 0.000000 -89.999405 0.012633 -89.829765 -19.543118 -18.772816 57.845055 -168.925049 -63.855377 -167.851303 0.000000 0.000000 0.000000 5.549028 79.005943 -145.098297 89.525681 43.824547 90.145470 -4.020832 0.209093 0.055690 169.276505 90.000000 0.000000 101.660927 81.666954 134.007980 -89.767891 -24.830729 90.025276 12.103999 -2.143582 1.372881 180.500412 -90.000000 0.000000 
6.436247 90.837608 -16.576931 23.265549 8.906714 1.777888 -89.999992 -90.000000 0.000000 -0.056017 0.021552 -0.275345 -0.179538 0.062405 -0.923666 0.000000 0.000000 0.000000 0.000000 0.000000 0.000000 90.043671 0.437906 -95.913582 30.915628 3.428365 84.916382 173.973694 52.942310 -172.293030 0.000000 0.000000 0.000000 -89.998611 0.031008 -89.582779 -17.624918 -21.484167 58.330410 -169.797012 -62.381832 -168.642075 0.000000 0.000000 0.000000 7.844079 79.827774 -146.710114 89.554054 42.314880 90.125740 -4.958601 -0.367322 -0.135158 170.702087 90.000000 0.000000 102.535728 81.681213 133.923462 -89.792778 -22.599663 90.015388 11.750923 -2.312733 1.439975 180.166367 -90.000000 0.000000 
6.354491 91.116821 -16.694128 23.618008 8.524366 1.778874 -89.999992 -90.000000 0.000000 -0.072014 0.026607 -0.230336 -0.232016 0.085292 -0.773882 0.000000 0.000000 0.000000 0.000000 0.000000 0.000000 90.037582 0.393845 -95.316071 28.323086 5.483243 84.362274 174.776978 50.697929 -172.970322 0.000000 0.000000 0.000000 -89.997284 0.067439 -89.093086 -15.905220 -24.143381 58.617733 -170.426071 -61.140419 -169.202545 0.000000 0.000000 0.000000 9.134619 80.459824 -147.354904 89.581863 40.716835 90.107185 -5.917455 -0.375781 -0.141970 172.234161 90.000000 0.000000 103.444939 81.709885 133.971832 -89.821182 -19.924206 90.005569 11.467288 -2.144545 1.290052 179.953308 -90.000000 0.000000 
6.258535 91.454849 -16.884623 24.135473 8.001716 1.753936 -89.999992 -90.000000 0.000000 -0.081534 0.032016 -0.181637 -0.264019 0.104007 -0.603989 0.000000 0.000000 0.000000 0.000000 0.000000 0.000000 90.029388 0.328659 -94.433594 25.256563 7.868216 83.211632 175.375763 48.636044 -173.452011 0.000000 0.000000 0.000000 -89.995789 0.125748 -88.309692 -14.392181 -26.551193 58.726906 -170.968140 -59.925694 -169.677200 0.000000 0.000000 0.000000 8.434648 80.910591 -146.187927 89.604950 39.291035 90.092476 -5.823432 -0.228118 -0.103654 172.478836 90.000000 0.000000 103.939339 81.880409 134.500595 -89.853645 -16.708448 89.996269 10.813122 -1.690469 0.955087 179.792679 -90.000000 0.000000 
6.136979 91.868179 -17.170418 24.772360 7.685076 1.644625 -89.999992 -90.000000 0.000000 -0.085186 0.038548 -0.133725 -0.273612 0.120659 -0.440036 0.000000 0.000000 0.000000 0.000000 0.000000 0.000000 90.020233 0.244337 -93.294350 22.133089 10.069609 81.694351 175.769928 46.936081 -173.748199 0.000000 0.000000 0.000000 -89.995049 0.205275 -87.241547 -12.733243 -28.835033 58.527065 -171.295395 -59.053677 -169.955963 0.000000 0.000000 0.000000 6.872011 81.324326 -144.057037 89.627472 37.808361 90.078819 -4.864567 -0.460128 -0.192950 171.673126 90.000000 0.000000 103.252640 82.262657 136.150558 -89.887444 -13.206483 89.988953 9.328918 -1.289645 0.659169 179.747742 -90.000000 0.000000 
5.983422 92.278603 -17.424314 25.259907 7.471655 1.449123 -89.999992 -90.000000 0.000000 -0.081447 0.043994 -0.092428 -0.262001 0.130539 -0.309212 0.000000 0.000000 0.000000 0.000000 0.000000 0.000000 90.011536 0.145111 -91.956444 19.249647 11.804634 79.909050 175.876816 46.079563 -173.804901 0.000000 0.000000 0.000000 -89.996109 0.300346 -85.964493 -10.834385 -30.935234 58.161247 -171.336166 -58.773159 -169.981033 0.000000 0.000000 0.000000 5.096381 81.754494 -141.203247 89.660500 35.485424 90.059929 -4.708537 -0.931473 -0.362418 172.395813 90.000000 0.000000 103.014244 82.712273 137.219940 -89.915367 -10.201546 89.984894 7.518776 -1.071009 0.488369 179.761475 -90.000000 0.000000 
5.821166 92.581123 -17.552410 25.485773 7.130135 1.221084 -89.999992 -90.000000 0.000000 -0.067934 0.042397 -0.066091 -0.229689 0.123796 -0.231934 0.000000 0.000000 0.000000 0.000000 0.000000 0.000000 90.004654 0.037491 -90.507874 16.641026 13.216371 77.894440 175.757599 46.007565 -173.680573 0.000000 0.000000 0.000000 -89.999596 0.401789 -84.601196 -8.671818 -32.582886 58.139030 -171.270035 -58.728001 -169.912292 0.000000 0.000000 0.000000 3.393237 82.247734 -137.948364 89.702995 32.234856 90.037727 -6.336640 -1.401718 -0.568911 175.914108 90.000000 0.000000 105.063644 83.027969 135.599121 -89.929489 -8.625290 89.983917 6.298620 -0.987035 0.413508 179.777145 -90.000000 0.000000 
